# xmcd CD database file
#
# Track frame offsets:
#	150
#	18586
#	31982
#	46360
#	62032
#	79045
#	95593
#	111139
#	127927
#	141568
#
# Disc length: 2109 seconds
#
# Revision: 2
# Processed by: cddbd v1.5.1PL0 Copyright (c) Steve Scherf et al.
# Submitted via: jetAudio 5
#
DISCID=85083b0a
DTITLE=Brent Bingham - One Nation Under God
DYEAR=1900
DGENRE=
TTITLE0=1 Nation
TTITLE1=Johnny Be Good
TTITLE2=About Losing You
TTITLE3=Somebody Loves Me
TTITLE4=I'm A Fool Too
TTITLE5=Can't Take A Full Moon
TTITLE6=When I Found You
TTITLE7=The Prophet
TTITLE8=Away With My Heart
TTITLE9=Kooter Brown
EXTD=Brent Bingham - "One Nation Under God" is a collection of ten song
EXTD=s recorded for the purpose of landing Brent a major recording cont
EXTD=ract. When the songs were recorded, producer Dave Smith nor Brent 
EXTD=did not realize the impact of the song "One Nation Under God" woul
EXTD=d have on the listeners and fans since the tragic events of 9/11. 
EXTD=This album is being released at the request of many fans and in th
EXTD=e hopes of provising inspiration to all those who believe this is 
EXTD=still One Nation Under God
EXTT0=
EXTT1=
EXTT2=
EXTT3=
EXTT4=
EXTT5=
EXTT6=
EXTT7=
EXTT8=
EXTT9=
PLAYORDER=
